<svg version="1.2" xmlns="http://www.w3.org/2000/svg" viewBox="0 0 216 85" width="600" height="236">
	<title>AdobeStock_690460377-svg</title>
	<style>
		.s0 { fill: #415a75 } 
		.s1 { fill: #ffffff } 
	</style>
	<g id="cloud">
		<g id="Layer">
			<path id="Layer" class="s0" d="m98.7 84.9c-6.8 0-13-4-15.9-9.9-2.9 2.7-6.7 4.3-10.7 4.6q-0.6 0-1.2 0c-4.1 0-8-1.4-11.1-3.9-3 4.9-8.2 8.2-14 8.6q-0.6 0.1-1.2 0.1c-3.8 0-7.5-1.2-10.5-3.5-1.8 1.3-3.8 2-6 2.1q-0.4 0.1-0.8 0.1c-4.8 0-9-3-10.7-7.4q-0.5 0.1-1.1 0.1-0.4 0.1-0.9 0.1c-7.7 0-14.1-6-14.6-13.7-0.3-5.2 2.2-10.2 6.6-13.1q-0.2-0.9-0.3-1.7c-0.5-8.1 5.6-15 13.6-15.6q0.5 0 1 0c3.7 0 7.3 1.4 10 3.9 2.3-1.9 5.2-3.1 8.4-3.3q0.4 0 0.9 0 0.1 0 0.2 0c0.4-8.9 7.4-16.3 16.5-16.9q0.5 0 1.1 0 1.1 0 2.1 0.1c3.6-8.9 11.9-14.9 21.6-15.5q0.9-0.1 1.7-0.1c10.9 0 20.4 6.9 23.8 17.1q1.9-0.6 3.8-0.7 0.6 0 1.2 0c8.7 0 16.1 6.4 17.4 14.9q1-0.3 2.1-0.5c2.7-3.5 6.8-5.5 11.2-5.5h0.3q1.1 0 2.2 0.2c3.5-6.6 10.3-10.7 17.8-10.7h0.3c9.1 0.1 16.8 6.3 19.1 14.8q1.3-0.2 2.5-0.2h0.2c3.8 0.1 7.4 1.6 10 4.3 2.3 2.3 3.6 5.3 4 8.4q1.1-0.2 2.3-0.2h0.3c7.8 0.1 14.1 6.6 14 14.5-0.1 7.2-5.6 13.1-12.6 13.9-1 6.9-7 12.2-14.1 12.2h-0.2c-2.8-0.1-5.6-0.9-7.9-2.5-2.4 1.9-5.4 2.9-8.6 2.9h-0.3c-5.6-0.1-10.6-3.5-12.8-8.5-2.4 1.7-5.3 2.7-8.3 2.7h-0.2c-3.5-0.1-6.7-1.4-9.3-3.7-2.6 3.5-6.7 5.6-11 5.7-2.8 2-6 3.2-9.4 3.4q-0.6 0.1-1.2 0.1c-3.2 0-6.4-0.9-9.1-2.6-3 2.9-6.9 4.6-11 4.8q-0.6 0.1-1.2 0.1z"/>
			<path id="Layer" class="s1" d="m213.9 56.3c-0.1 6.8-5.7 12.2-12.4 12.1-0.1 6.8-5.7 12.2-12.5 12.1-3-0.1-5.8-1.3-7.9-3.2-2.3 2.3-5.4 3.7-8.8 3.6-6-0.1-10.9-4.5-11.9-10.1-2.3 2.6-5.7 4.3-9.5 4.2-3.9 0-7.4-1.9-9.6-4.9-2 4.2-6.3 7-11.2 7q-0.1-0.1-0.2-0.1c-2.4 2-5.5 3.3-8.8 3.5-4 0.3-7.6-0.9-10.5-3.1-2.7 3.1-6.5 5.1-10.9 5.4-7.6 0.5-14.3-4.5-16.2-11.6-2.6 3.6-6.8 6.1-11.6 6.4-5 0.3-9.6-1.7-12.7-5.2-2.2 5.5-7.3 9.5-13.6 9.9-4.4 0.3-8.5-1.3-11.5-4-1.6 1.6-3.7 2.6-6.1 2.7-4.9 0.4-9.1-3-10-7.6q-1.2 0.4-2.6 0.4c-6.9 0.5-12.9-4.7-13.4-11.7-0.3-5.2 2.5-9.8 6.8-12q-0.4-1.4-0.5-2.9c-0.4-6.9 4.8-12.9 11.7-13.4 4.4-0.3 8.3 1.7 10.8 4.8 2.1-2.4 5.1-4 8.6-4.2q1.6-0.1 3.1 0.2-0.1-0.2-0.1-0.4c-0.6-8.6 6-16.1 14.6-16.7q2.3-0.1 4.4 0.4c2.9-8.7 10.8-15.2 20.5-15.9 11.4-0.7 21.4 6.9 24 17.7 1.6-0.7 3.4-1.2 5.2-1.3 8.7-0.6 16.1 5.9 16.7 14.6q0 0.5 0 1.1c1.6-0.7 3.2-1.2 5-1.4 2.2-3.3 6-5.5 10.3-5.4q1.8 0 3.4 0.5c2.8-6.6 9.4-11.1 17-11 8.9 0.1 16.3 6.7 17.6 15.3q2-0.7 4.2-0.7c6.8 0.1 12.1 5.7 12 12.4q0 0.5 0 0.9c1.4-0.5 2.9-0.8 4.6-0.8 6.7 0.1 12.1 5.7 12 12.4z"/>
		</g>
	</g>
</svg>