<svg version="1.2" xmlns="http://www.w3.org/2000/svg" viewBox="0 0 512 512" width="100" height="100">
	<title>Nytt projekt</title>
	<style>
		.s0 { fill: #ffffff } 
		.s1 { fill: #415a75 } 
		.s2 { fill: #000000 } 
	</style>
	<path id="Form 1" class="s0" d="m256 491c-130 0-235-105-235-235 0-130 105-235 235-235 130 0 235 105 235 235 0 130-105 235-235 235z"/>
	<path id="Form 2" class="s1" d="m79 276c-11.1 0-20-8.9-20-20 0-11.1 8.9-20 20-20 11.1 0 20 8.9 20 20 0 11.1-8.9 20-20 20z"/>
	<path id="Form 2 copy" class="s1" d="m437 276c-11.1 0-20-8.9-20-20 0-11.1 8.9-20 20-20 11.1 0 20 8.9 20 20 0 11.1-8.9 20-20 20z"/>
	<path id="SWE" class="s2" aria-label="SWE"  d="m162.4 189.2q-4.5 6.2-9.8 10.9-5.3 4.7-11.2 7.1-5.9 2.2-11.8 1.7-6-0.7-12-5-0.5-0.4-1-0.8-0.7-0.4-0.9-0.8l11.1-15.3q0.3 0.3 0.8 0.7 0.5 0.4 0.9 0.7 3.3 2.4 6.9 2.3 3.6-0.2 7.3-2.9 3.7-2.7 7.1-7.4 2.2-3 3.5-5.5 1.3-2.7 2-4.9 0.6-2.4 0.5-4.2 0-1.9-0.9-3.4-0.8-1.5-2.4-2.6-2.8-2-5.9-1.5-3 0.5-6.6 2.8-3.5 2.3-7.4 5.4-3.9 3.2-7.9 6.6-4.2 3.3-8.6 6.2-4.5 2.7-9 4.1-4.5 1.5-9.4 0.8-4.9-0.7-9.9-4.3-5.3-3.8-7.5-8.8-2.2-5-1.7-10.9 0.4-5.8 3.1-11.9 2.6-6.2 7.1-12.4 4.2-5.8 9.2-10.1 4.9-4.4 10.3-6.4 5.5-2.1 11-1.4 5.6 0.6 11 4.5l1.2 0.9-10.9 15-0.8-0.6q-2.8-2-6-1.8-3.2 0.2-6.5 2.4-3.3 2.2-6.2 6.2-3.2 4.4-4.6 8.1-1.3 3.6-0.9 6.5 0.4 2.6 2.6 4.2 2.5 1.8 5.4 1.3 2.9-0.8 6.4-3 3.5-2.4 7.3-5.6 3.8-3.3 7.9-6.6 4.2-3.3 8.6-6.1 4.4-2.9 9-4.2 4.6-1.5 9.3-0.9 4.8 0.6 9.6 4.1 8.2 5.9 10.3 13.5 2.1 7.5-0.6 16-2.7 8.5-9 17.3zm73.3-47l-22.4 0.4-24.4-87.4 20.2-0.4 13.7 52.2q0.4 1.1 0.8 3.4 0.4 2.2 0.8 4.6 0.5 2.5 0.7 4.4h0.7q0.2-1.4 0.3-3.2 0.2-1.8 0.5-3.5 0.3-1.8 0.6-3.3 0.3-1.6 0.4-2.5l11.1-52.5 22.8-0.4 13 52.2q0.4 1.3 0.8 3.4 0.4 2.2 0.8 4.6 0.5 2.4 0.7 4.4h0.7q0.2-1.5 0.5-3.1 0.3-1.7 0.5-3.4 0.4-1.8 0.8-3.3 0.3-1.5 0.6-2.7l11.8-52.5 18.3-0.3-21.8 88.1-21.7 0.4-13.8-53.8q-0.4-1.8-1-4.1-0.4-2.4-0.8-4.7-0.4-2.3-0.7-4.1h-0.5q-0.3 1.8-0.6 4.2-0.2 2.4-0.7 4.8-0.4 2.3-0.7 3.9zm129.1 73.2l-43.3-56.1 69.5-53.6 42.9 55.5-12.4 9.5-31.1-40.3-15.5 12 27.5 35.6-12.3 9.5-27.5-35.7-16.9 13.1 31.6 40.9z"/>
	<path id="U" class="s2" aria-label="U"  d="m97.4 381.8q-7.9-9.2-10.6-18.3-2.7-9 0.2-17.5 2.9-8.6 11.7-16.1l41.5-35.5 12.5 14.6-41.2 35.2q-7.2 6.2-7.8 13.3-0.5 7 5.5 14.1 6.1 7.1 13.2 7.7 7.2 0.5 14.4-5.6l41.1-35.3 12.5 14.6-41.5 35.6q-8.8 7.5-17.7 9-8.8 1.5-17.4-2.6-8.5-4-16.4-13.2z"/>
	<path id="N" class="s2" aria-label="N"  d="m235.8 455h-18.1v-87.8h17.6l35.3 47.4q0.8 0.8 1.9 2.5 1.2 1.5 2.2 3.1 1 1.5 1.4 2.4h0.6q0-2.2 0-4.2 0-2.2 0-3.8v-47.4h18.1v87.8h-17.6l-36-48.5q-1.3-1.8-2.7-4-1.4-2.2-2.1-3.3h-0.6q0 1.9 0 3.8 0 1.8 0 3.5z"/>
	<path id="Form 3" class="s1" d="m255.5 321c-11.3 0-20.5-29.3-20.5-65.5 0-36.2 9.2-65.5 20.5-65.5 11.3 0 20.5 29.3 20.5 65.5 0 36.2-9.2 65.5-20.5 65.5z"/>
	<path id="i" class="s2" aria-label="i"  d="m351.1 340.4l-12 13.1-11.3-10.4 12-13.1zm56.8 52.4l-12.1 13.1-49.5-45.7 12.1-13.1z"/>
</svg>