<svg version="1.2" xmlns="http://www.w3.org/2000/svg" viewBox="0 0 2000 1800" width="100" height="90">
	<title>AdobeStock_201812130-ai</title>
	<style>
		.s0 { fill: #ffffff } 
		.s1 { fill: #000000 } 
	</style>
	<g id="_Artboards_">
	</g>
	<g id="Layer 1">
		<g id="&lt;Group&gt;">
			<g id="&lt;Group&gt;">
				<g id="&lt;Group&gt;">
					<path id="&lt;Path&gt;" class="s0" d="m543.5 1580c-40.4 0-73.3-32.9-73.3-73.3 0-40.5 32.9-73.4 73.3-73.4 40.5 0 73.4 32.9 73.4 73.4 0 40.4-32.9 73.3-73.4 73.3z"/>
				</g>
				<g id="&lt;Group&gt;">
					<path id="&lt;Path&gt;" class="s0" d="m753.5 1440c-53.3 0-96.6-43.4-96.6-96.7 0-53.3 43.3-96.6 96.6-96.6 53.3 0 96.7 43.3 96.7 96.6 0 53.3-43.4 96.7-96.7 96.7z"/>
				</g>
				<g id="&lt;Group&gt;">
					<path id="&lt;Path&gt;" class="s0" d="m961.4 1199.1c-71.6 0-138-32.3-182.3-88.7l-9.8-12.4-14.3 6.6c-24.5 11.3-51.7 17.3-78.4 17.3-83.4 0-157.9-55.9-181.1-136l-3.5-11.9-12.2-2.2c-57.5-10.4-110-40.9-147.7-86-37.9-45.2-58.8-102.6-58.8-161.5 0-56.3 19.2-111.6 54.1-155.8 34.7-44.1 83.7-75.6 138-88.7l10.7-2.6 3.5-10.4c15.7-45.8 44.9-85 84.5-113.4 39.7-28.5 86.4-43.6 134.9-43.6 29.7 0 58.7 5.6 86.2 16.8l14.8 5.9 9.1-13c43.5-62.3 114.6-99.5 190.2-99.5 33.4 0 65.6 6.9 95.6 20.5 29.9 13.5 56.2 33.1 78.2 58.1l9.6 11 13.4-5.8c28.9-12.6 60.8-19.3 92.3-19.3 106.8 0 199.3 72.4 224.9 175.9l3.2 13 13.2 2c112.3 17.2 197 115.7 197 229.2 0 39-10 77.7-29 111.9-18.9 34.2-46.2 63.3-79.1 84.1l-8 5.1-1.2 9.3c-10 80.4-78.7 140.9-159.7 140.9-14.8 0-29.5-2-43.6-6l-16.5-4.6-7.1 15.6c-12.7 27.9-33.3 51.6-59.4 68.6-26.3 17-56.5 26.1-87.4 26.1-30.9 0-61-8.9-87.1-25.6l-13.4-8.7-11.4 11.2c-43.7 42.9-101.4 66.6-162.4 66.6z"/>
				</g>
			</g>
			<g id="&lt;Group&gt;">
				<g id="&lt;Group&gt;">
					<path id="&lt;Compound Path&gt;" fill-rule="evenodd" class="s1" d="m543.5 1600c-51.4 0-93.3-41.9-93.3-93.3 0-51.5 41.9-93.4 93.3-93.4 51.5 0 93.4 41.9 93.4 93.4 0 51.4-41.9 93.3-93.4 93.3zm0-140c-25.7 0-46.6 20.9-46.6 46.7 0 25.7 20.9 46.6 46.6 46.6 25.8 0 46.7-20.9 46.7-46.6 0-25.8-20.9-46.7-46.7-46.7z"/>
				</g>
				<g id="&lt;Group&gt;">
					<path id="&lt;Compound Path&gt;" fill-rule="evenodd" class="s1" d="m753.5 1460c-64.3 0-116.6-52.3-116.6-116.7 0-64.3 52.3-116.6 116.6-116.6 64.4 0 116.7 52.3 116.7 116.6 0 64.4-52.3 116.7-116.7 116.7zm0-186.7c-38.6 0-70 31.4-70 70 0 38.6 31.4 70 70 70 38.6 0 70-31.4 70-70 0-38.6-31.4-70-70-70z"/>
				</g>
				<g id="&lt;Group&gt;">
					<path id="&lt;Compound Path&gt;" fill-rule="evenodd" class="s1" d="m961.4 1219.1c-77.8 0-150.4-35.7-198-96.3-27.3 12.5-56.9 19.1-86.8 19.1-93 0-174.8-62.3-200.3-150.4-128.2-23.2-223-135.3-223-267.2 0-125.9 86.4-234.7 207.4-264 34.6-101.1 130.6-170.5 238.3-170.5 32.4 0 63.8 6.1 93.7 18.2 46.9-67.1 124.2-108 206.6-108 73.1 0 140.9 30.9 188.8 85.4 31.5-13.7 65.8-20.9 100.3-20.9 116.6 0 216.7 79.4 244.3 191.1 121.3 18.6 214 124.7 214 249 0 86.4-44.7 166.9-117.4 212.9-11.3 89.8-87.8 158.4-179.6 158.4-16.7 0-33.1-2.2-49-6.7-29.1 63.6-93.8 106.4-165 106.4-34.8 0-68.8-10.1-97.9-28.8-47 46.1-110.2 72.3-176.4 72.3zm-183.7-157.7l12.2 18.5c38.3 57.9 102.4 92.5 171.5 92.5 59.8 0 116.6-26.2 155.8-71.8l15-17.4 17.6 14.7c24.1 20 54.6 31 85.9 31 59 0 112-39.5 128.9-96l7.5-25.2 24.1 10.5c17 7.3 35 11.1 53.5 11.1 71.2 0 130.2-55.8 134.1-127l0.7-12.7 11.1-6.3c64.4-36.5 104.4-104.9 104.4-178.7 0-106-82.8-195.9-188.5-204.5l-18-1.4-3.1-17.8c-17.2-98.3-102.2-169.7-202-169.7-33.8 0-66 8-95.9 23.8l-17.5 9.3-12-15.9c-39.3-51.9-99-81.7-163.7-81.7-72.9 0-140.9 39.3-177.6 102.6l-11.1 19-19.6-9.9c-29-14.6-59.9-21.9-92-21.9-91.6 0-172.9 61.7-197.6 150l-3.9 14-14.3 2.7c-106.1 19.9-183.2 112.9-183.2 221.1 0 113.7 85.1 209.8 197.9 223.3l16.7 2 3.4 16.5c15.4 74.8 82.1 129.1 158.6 129.1 28.7 0 57-7.8 82-22.5z"/>
				</g>
			</g>
		</g>
	</g>
</svg>